/* XPM */
static char *enter[] = {
/* columns rows colors chars-per-pixel */
"24 24 3 1",
"  c #5B7950",
". c none",
"X c #FFFFFF",
/* pixels */
"......            ......",
".....              .....",
"....                ....",
"...                  ...",
"..                    ..",
".                      .",
"  XXX X  X XXX XXX XX   ",
"  X   XX X  X  X   X X  ",
"  X   XX X  X  X   X X  ",
"  X   XX X  X  X   X X  ",
"  X   XX X  X  X   X X  ",
"  XXX X  X  X  XXX XXX  ",
"  X   X XX  X  X   X X  ",
"  X   X XX  X  X   X X  ",
"  X   X XX  X  X   X X  ",
"  X   X XX  X  X   X X  ",
"  XXX X  X  X  XXX X X  ",
"                        ",
".                      .",
"..                    ..",
"...                  ...",
"....                ....",
".....              .....",
"......            ......"
};
