/* XPM */
static char *menu[] = {
/* columns rows colors chars-per-pixel */
"24 24 3 1",
"  c #5B7950",
". c none",
"X c #FFFFFF",
/* pixels */
"......            ......",
".....              .....",
"....                ....",
"...                  ...",
"..                    ..",
".                      .",
"    X X  XXX XX X X X   ",
"   X X X X   XX X X X   ",
"   X X X X   XX X X X   ",
"   X X X X   XX X X X   ",
"   X X X X   XX X X X   ",
"   X X X XXX X  X X X   ",
"   X X X X   X XX X X   ",
"   X X X X   X XX X X   ",
"   X X X X   X XX X X   ",
"   X X X X   X XX X X   ",
"   X X X XXX X XX XXX   ",
"                        ",
".                      .",
"..                    ..",
"...                  ...",
"....                ....",
".....              .....",
"......            ......"
};
